# xmcd
#
# Track frame offsets:
# 150
# 16215
# 32700
# 49335
# 66437
# 85587
# 103017
# 120765
# 138202
# 156650
# 174297
# 192052
# 209755
# 228640
# 250080
# 266215
# 280455
# 302060
# 318642
#
# Disc length: 4496 seconds
#
#
# Revision: 4
# Processed by: cddbd v1.5.2PL0 Copyright (c) Steve Scherf et al.
# Submitted via: FreeRIP 2.951 
#
DISCID=13118e13
DTITLE=Curtis Mayfield - Move On Up: The Singles Anthology 1970-90  [CD2)
DYEAR=1999
DGENRE=Soul
TTITLE0=Do Do Wap Is Strong In Here (Single Edit)
TTITLE1=You Are, You Are
TTITLE2=Do It All Night
TTITLE3=In Love, In Love, In Love
TTITLE4=No Goodbyes
TTITLE5=This Year, This Year
TTITLE6=Between You Baby And Me
TTITLE7=Love's Sweet Sensation
TTITLE8=Love Me, Love Me Now
TTITLE9=Tripping Out
TTITLE10=It's Alright
TTITLE11=She Don't Let Nobody (But Me)
TTITLE12=Toot An' Toot An' Toot
TTITLE13=Hey Baby (Give It All To Me)
TTITLE14=Baby It's You
TTITLE15=I Mo Git U Sucka
TTITLE16=Homeless
TTITLE17=Do Be Down
TTITLE18=Dirty Laundry
EXTD=
EXTT0=
EXTT1=
EXTT2=
EXTT3=
EXTT4=
EXTT5=
EXTT6=
EXTT7=
EXTT8=
EXTT9=
EXTT10=
EXTT11=
EXTT12=
EXTT13=
EXTT14=
EXTT15=
EXTT16=
EXTT17=
EXTT18=
PLAYORDER=
